<?xml version="1.0" standalone="no"?>
<!DOCTYPE svg PUBLIC "-//W3C//DTD SVG 20010904//EN"
 "http://www.w3.org/TR/2001/REC-SVG-20010904/DTD/svg10.dtd">
<svg version="1.0" xmlns="http://www.w3.org/2000/svg"
 width="790.000000pt" height="790.000000pt" viewBox="0 0 790.000000 790.000000"
 preserveAspectRatio="xMidYMid meet">
<metadata>
Created by potrace 1.14, written by Peter Selinger 2001-2017
</metadata>
<g transform="translate(0.000000,790.000000) scale(0.100000,-0.100000)"
fill="#000000" stroke="none">
<path d="M760 7859 c-41 -22 -78 -39 -81 -39 -20 0 -198 -132 -239 -177 -46
-51 -126 -170 -180 -271 -14 -26 -28 -48 -32 -50 -5 -2 -8 -1628 -8 -3613 l0
-3610 3043 1 c1938 1 3089 5 3172 11 72 6 171 17 220 26 50 8 110 19 135 23
77 12 180 57 315 138 152 91 227 160 363 337 95 123 116 160 152 261 11 33 25
61 30 62 6 2 10 18 10 36 0 17 7 42 17 55 13 20 14 27 4 44 -9 14 -10 22 -2
30 8 8 11 981 11 3394 l0 3383 -3427 -1 -3428 -1 -75 -39z m3793 -1691 c57
-32 65 -67 44 -185 -8 -48 -23 -110 -31 -138 -8 -27 -25 -84 -36 -125 -146
-529 -154 -557 -185 -655 -12 -38 -34 -117 -50 -175 -15 -58 -37 -139 -50
-180 -13 -41 -42 -145 -65 -230 -24 -85 -53 -186 -65 -225 -12 -38 -26 -86
-30 -105 -4 -19 -27 -105 -52 -190 -25 -85 -54 -186 -63 -225 -10 -38 -28
-101 -40 -140 -12 -38 -25 -86 -30 -105 -12 -56 -111 -410 -181 -650 -11 -36
-28 -98 -39 -137 -10 -40 -41 -146 -69 -235 -27 -90 -57 -190 -65 -223 -35
-126 -110 -342 -132 -377 -29 -45 -44 -50 -116 -39 -64 11 -101 28 -140 66
-23 21 -28 34 -28 74 0 27 9 77 20 112 12 35 32 109 46 164 14 55 41 152 59
215 18 63 47 167 65 230 17 63 42 149 55 190 12 41 30 104 40 140 9 36 30 108
46 160 15 52 38 131 50 175 36 139 58 216 94 345 48 171 151 528 180 625 13
44 36 125 50 180 15 55 51 186 82 290 30 105 61 210 68 235 19 67 80 283 131
470 160 580 189 658 249 690 32 16 141 4 188 -22z m-2165 -1232 c66 -68 78
-96 67 -154 -7 -38 -43 -76 -562 -601 -84 -85 -153 -161 -153 -171 0 -9 24
-40 53 -68 243 -236 629 -637 647 -673 17 -32 21 -54 18 -91 -5 -44 -11 -54
-59 -98 -86 -79 -113 -79 -211 2 -169 139 -714 676 -825 812 -43 53 -48 64
-48 110 0 49 3 55 71 136 97 116 785 795 842 831 69 44 89 39 160 -35z m3017
31 c11 -5 128 -116 260 -246 621 -611 645 -637 645 -705 0 -76 -47 -133 -445
-533 -413 -415 -495 -483 -561 -467 -14 4 -33 18 -42 33 -9 14 -38 50 -65 79
-66 72 -62 91 48 220 11 13 158 163 328 333 219 221 307 316 307 332 0 16 -55
77 -187 207 -322 318 -356 353 -422 433 -35 42 -67 77 -70 77 -13 0 -41 59
-41 86 0 44 98 159 143 167 28 4 76 -3 102 -16z"/>
</g>
</svg>
